<?xml version="1.0" encoding="UTF-8"?>
<svg width="131px" height="91px" viewBox="0 0 131 91" version="1.1" xmlns="http://www.w3.org/2000/svg" xmlns:xlink="http://www.w3.org/1999/xlink">
    <title>Group 2@3x</title>
    <g id="Drafting" stroke="none" stroke-width="1" fill="none" fill-rule="evenodd">
        <g id="Artboard" transform="translate(-152.000000, -67.000000)" fill-rule="nonzero">
            <g id="Group-3" transform="translate(152.000000, 67.000000)">
                <g id="Group-2" transform="translate(67.500000, 48.500000) scale(-1, 1) translate(-67.500000, -48.500000) translate(4.000000, 6.000000)" fill="#F04D98">
                    <g id="Group">
                        <path d="M30.5,0 C13.6927408,0 0,13.6362152 0,30.3740916 C0,46.6366986 13.0038287,59.7311371 29.1537111,60.4752902 C28.3395587,63.0242354 27.4529805,65.7003812 25.54375,67.8552468 C22.9199326,70.8166296 20.3134764,72.73171 20.3134764,72.73171 L17.8234375,74.5470358 L25.6986327,85 L27.9146486,84.0270753 C27.9146486,84.0270753 61,69.3487895 61,31.8927962 L61,30.3740916 C61,13.750296 48.0733253,0 30.5,0 Z M30.5,6.07481832 C44.9516747,6.07481832 54.9,16.8060402 54.9,30.3740916 L54.9,31.8927962 C54.9,63.6069198 30.7294064,75.5231923 27.3785153,77.0979857 L26.1871097,75.5080964 C27.3646824,74.5451465 28.1590134,74.0774402 30.11875,71.8655746 C33.2136826,68.3724629 36.6,63.5324729 36.6,57.710774 L36.6,54.6733649 L30.5,54.6733649 C16.9902592,54.6733649 6.1,43.8280622 6.1,30.3740916 C6.1,16.920121 16.9902592,6.07481832 30.5,6.07481832 Z" id="Shape"></path>
                    </g>
                    <g id="Group" transform="translate(66.000000, 0.000000)">
                        <path d="M30.5,0 C13.6927408,0 0,13.6362152 0,30.3740916 C0,46.6366986 13.0038287,59.7311371 29.1537111,60.4752902 C28.3395587,63.0242354 27.4529805,65.7003812 25.54375,67.8552468 C22.9199326,70.8166296 20.3134764,72.73171 20.3134764,72.73171 L17.8234375,74.5470358 L25.6986327,85 L27.9146486,84.0270753 C27.9146486,84.0270753 61,69.3487895 61,31.8927962 L61,30.3740916 C61,13.750296 48.0733253,0 30.5,0 Z M30.5,6.07481832 C44.9516747,6.07481832 54.9,16.8060402 54.9,30.3740916 L54.9,31.8927962 C54.9,63.6069198 30.7294064,75.5231923 27.3785153,77.0979857 L26.1871097,75.5080964 C27.3646824,74.5451465 28.1590134,74.0774402 30.11875,71.8655746 C33.2136826,68.3724629 36.6,63.5324729 36.6,57.710774 L36.6,54.6733649 L30.5,54.6733649 C16.9902592,54.6733649 6.1,43.8280622 6.1,30.3740916 C6.1,16.920121 16.9902592,6.07481832 30.5,6.07481832 Z" id="Shape"></path>
                    </g>
                </g>
                <g id="Group-2" transform="translate(63.500000, 42.500000) scale(-1, 1) translate(-63.500000, -42.500000) " fill="#FFFFFF">
                    <g id="Group">
                        <path d="M30.5,0 C13.6927408,0 0,13.6362152 0,30.3740916 C0,46.6366986 13.0038287,59.7311371 29.1537111,60.4752902 C28.3395587,63.0242354 27.4529805,65.7003812 25.54375,67.8552468 C22.9199326,70.8166296 20.3134764,72.73171 20.3134764,72.73171 L17.8234375,74.5470358 L25.6986327,85 L27.9146486,84.0270753 C27.9146486,84.0270753 61,69.3487895 61,31.8927962 L61,30.3740916 C61,13.750296 48.0733253,0 30.5,0 Z M30.5,6.07481832 C44.9516747,6.07481832 54.9,16.8060402 54.9,30.3740916 L54.9,31.8927962 C54.9,63.6069198 30.7294064,75.5231923 27.3785153,77.0979857 L26.1871097,75.5080964 C27.3646824,74.5451465 28.1590134,74.0774402 30.11875,71.8655746 C33.2136826,68.3724629 36.6,63.5324729 36.6,57.710774 L36.6,54.6733649 L30.5,54.6733649 C16.9902592,54.6733649 6.1,43.8280622 6.1,30.3740916 C6.1,16.920121 16.9902592,6.07481832 30.5,6.07481832 Z" id="Shape"></path>
                    </g>
                    <g id="Group" transform="translate(66.000000, 0.000000)">
                        <path d="M30.5,0 C13.6927408,0 0,13.6362152 0,30.3740916 C0,46.6366986 13.0038287,59.7311371 29.1537111,60.4752902 C28.3395587,63.0242354 27.4529805,65.7003812 25.54375,67.8552468 C22.9199326,70.8166296 20.3134764,72.73171 20.3134764,72.73171 L17.8234375,74.5470358 L25.6986327,85 L27.9146486,84.0270753 C27.9146486,84.0270753 61,69.3487895 61,31.8927962 L61,30.3740916 C61,13.750296 48.0733253,0 30.5,0 Z M30.5,6.07481832 C44.9516747,6.07481832 54.9,16.8060402 54.9,30.3740916 L54.9,31.8927962 C54.9,63.6069198 30.7294064,75.5231923 27.3785153,77.0979857 L26.1871097,75.5080964 C27.3646824,74.5451465 28.1590134,74.0774402 30.11875,71.8655746 C33.2136826,68.3724629 36.6,63.5324729 36.6,57.710774 L36.6,54.6733649 L30.5,54.6733649 C16.9902592,54.6733649 6.1,43.8280622 6.1,30.3740916 C6.1,16.920121 16.9902592,6.07481832 30.5,6.07481832 Z" id="Shape"></path>
                    </g>
                </g>
            </g>
        </g>
    </g>
</svg>