<?xml version="1.0" encoding="UTF-8"?>
<svg width="99px" height="57px" viewBox="0 0 99 57" version="1.1" xmlns="http://www.w3.org/2000/svg" xmlns:xlink="http://www.w3.org/1999/xlink">
    <title>Group 9@3x</title>
    <g id="Drafting" stroke="none" stroke-width="1" fill="none" fill-rule="evenodd">
        <g id="Artboard" transform="translate(-344.000000, -70.000000)" fill-rule="nonzero" stroke-width="1.59259259">
            <g id="Group-9" transform="translate(344.000000, 57.000000)">
                <path d="M16.7222222,48 L21.0222222,23.49 L29.2877778,23.49 L30.96,14.1733333 L3.05777778,14.1733333 L1.38555556,23.49 L9.93777778,23.49 L5.63777778,48 L16.7222222,48 Z M36.2155556,48 L39.0344444,42.84 L50.0233333,42.84 L50.7877778,48 L62.2544444,48 L56.33,14.1733333 L44.6722222,14.1733333 L23.8888889,48 L36.2155556,48 Z M49.1155556,34.3833333 L43.2866667,34.3833333 L48.1122222,25.6877778 L49.1155556,34.3833333 Z M76.2055556,48 L78.2122222,36.9633333 L81.4611111,36.9633333 C83.9455556,36.9633333 86.1592593,36.7164815 88.1022222,36.2227778 C90.0451852,35.7290741 91.7014815,34.9725926 93.0711111,33.9533333 C94.4407407,32.9340741 95.4838889,31.6281481 96.2005556,30.0355556 C96.9172222,28.442963 97.2755556,26.5637037 97.2755556,24.3977778 C97.2755556,21.2125926 96.1209259,18.7122222 93.8116667,16.8966667 C91.5024074,15.0811111 88.1659259,14.1733333 83.8022222,14.1733333 L83.8022222,14.1733333 L71.1888889,14.1733333 L65.2166667,48 L76.2055556,48 Z M81.4133333,28.65 L79.6455556,28.65 L80.6966667,22.8211111 L82.3688889,22.8211111 C83.5792593,22.8211111 84.5348148,23.0122222 85.2355556,23.3944444 C85.9362963,23.7766667 86.2866667,24.4774074 86.2866667,25.4966667 C86.2866667,26.5796296 85.8566667,27.3759259 84.9966667,27.8855556 C84.1366667,28.3951852 82.9422222,28.65 81.4133333,28.65 L81.4133333,28.65 Z" id="TAP" stroke-opacity="0.160356855" stroke="#FF417D"></path>
                <path d="M16.7222222,59.1866897 L21.0222222,34.6766897 L29.2877778,34.6766897 L30.96,25.360023 L3.05777778,25.360023 L1.38555556,34.6766897 L9.93777778,34.6766897 L5.63777778,59.1866897 L16.7222222,59.1866897 Z M36.2155556,59.1866897 L39.0344444,54.0266897 L50.0233333,54.0266897 L50.7877778,59.1866897 L62.2544444,59.1866897 L56.33,25.360023 L44.6722222,25.360023 L23.8888889,59.1866897 L36.2155556,59.1866897 Z M49.1155556,45.570023 L43.2866667,45.570023 L48.1122222,36.8744675 L49.1155556,45.570023 Z M76.2055556,59.1866897 L78.2122222,48.150023 L81.4611111,48.150023 C83.9455556,48.150023 86.1592593,47.9031712 88.1022222,47.4094675 C90.0451852,46.9157638 91.7014815,46.1592823 93.0711111,45.140023 C94.4407407,44.1207638 95.4838889,42.8148379 96.2005556,41.2222453 C96.9172222,39.6296527 97.2755556,37.7503934 97.2755556,35.5844675 C97.2755556,32.3992823 96.1209259,29.8989119 93.8116667,28.0833564 C91.5024074,26.2678008 88.1659259,25.360023 83.8022222,25.360023 L83.8022222,25.360023 L71.1888889,25.360023 L65.2166667,59.1866897 L76.2055556,59.1866897 Z M81.4133333,39.8366897 L79.6455556,39.8366897 L80.6966667,34.0078008 L82.3688889,34.0078008 C83.5792593,34.0078008 84.5348148,34.1989119 85.2355556,34.5811342 C85.9362963,34.9633564 86.2866667,35.6640971 86.2866667,36.6833564 C86.2866667,37.7663193 85.8566667,38.5626156 84.9966667,39.0722453 C84.1366667,39.5818749 82.9422222,39.8366897 81.4133333,39.8366897 L81.4133333,39.8366897 Z" id="TAP" stroke-opacity="0.481981398" stroke="#FF417D"></path>
                <path d="M16.7222222,68.7752809 L21.0222222,44.2652809 L29.2877778,44.2652809 L30.96,34.9486142 L3.05777778,34.9486142 L1.38555556,44.2652809 L9.93777778,44.2652809 L5.63777778,68.7752809 L16.7222222,68.7752809 Z M36.2155556,68.7752809 L39.0344444,63.6152809 L50.0233333,63.6152809 L50.7877778,68.7752809 L62.2544444,68.7752809 L56.33,34.9486142 L44.6722222,34.9486142 L23.8888889,68.7752809 L36.2155556,68.7752809 Z M49.1155556,55.1586142 L43.2866667,55.1586142 L48.1122222,46.4630587 L49.1155556,55.1586142 Z M76.2055556,68.7752809 L78.2122222,57.7386142 L81.4611111,57.7386142 C83.9455556,57.7386142 86.1592593,57.4917624 88.1022222,56.9980587 C90.0451852,56.504355 91.7014815,55.7478735 93.0711111,54.7286142 C94.4407407,53.709355 95.4838889,52.403429 96.2005556,50.8108365 C96.9172222,49.2182439 97.2755556,47.3389846 97.2755556,45.1730587 C97.2755556,41.9878735 96.1209259,39.4875031 93.8116667,37.6719476 C91.5024074,35.856392 88.1659259,34.9486142 83.8022222,34.9486142 L83.8022222,34.9486142 L71.1888889,34.9486142 L65.2166667,68.7752809 L76.2055556,68.7752809 Z M81.4133333,49.4252809 L79.6455556,49.4252809 L80.6966667,43.596392 L82.3688889,43.596392 C83.5792593,43.596392 84.5348148,43.7875031 85.2355556,44.1697253 C85.9362963,44.5519476 86.2866667,45.2526883 86.2866667,46.2719476 C86.2866667,47.3549105 85.8566667,48.1512068 84.9966667,48.6608365 C84.1366667,49.1704661 82.9422222,49.4252809 81.4133333,49.4252809 L81.4133333,49.4252809 Z" id="TAP" stroke="#F04D98"></path>
            </g>
        </g>
    </g>
</svg>